<svg width="144" height="142" viewBox="0 0 144 142" fill="none" xmlns="http://www.w3.org/2000/svg">
<path fill-rule="evenodd" clip-rule="evenodd" d="M36.8639 21.5058C38.8679 24.1082 38.3531 27.8198 35.714 29.796C29.3581 34.5555 24.0289 40.5176 20.0385 47.3332C18.3816 50.1631 14.7121 51.1327 11.8423 49.4989C8.97255 47.865 7.9893 44.2465 9.64616 41.4166C14.4347 33.2378 20.8297 26.0833 28.4568 20.3719C31.0959 18.3957 34.8598 18.9034 36.8639 21.5058ZM107.136 21.5058C109.14 18.9034 112.904 18.3957 115.543 20.3719C123.17 26.0833 129.565 33.2378 134.354 41.4166C136.011 44.2465 135.027 47.865 132.158 49.4989C129.288 51.1327 125.618 50.1631 123.962 47.3332C119.971 40.5176 114.642 34.5555 108.286 29.796C105.647 27.8198 105.132 24.1082 107.136 21.5058ZM72 35.5001C48.804 35.5001 30 54.0429 30 76.9167C30 99.7905 48.804 118.333 72 118.333C95.1959 118.333 114 99.7905 114 76.9167C114 54.0429 95.1959 35.5001 72 35.5001ZM18 76.9167C18 47.5076 42.1766 23.6667 72 23.6667C101.823 23.6667 126 47.5076 126 76.9167C126 106.326 101.823 130.167 72 130.167C42.1766 130.167 18 106.326 18 76.9167ZM72 47.3334C75.3137 47.3334 78 49.9824 78 53.2501V71.0001H96C99.3137 71.0001 102 73.649 102 76.9167C102 80.1844 99.3137 82.8334 96 82.8334H72C68.6863 82.8334 66 80.1844 66 76.9167V53.2501C66 49.9824 68.6863 47.3334 72 47.3334Z" fill="#FF0000"/>
</svg>
